<svg viewBox="0 0 35 35" fill="none" xmlns="http://www.w3.org/2000/svg">
<path d="M30.4046 34.822L22.1834 26.5381C19.9302 28.0237 17.2371 28.8948 14.3313 28.8948C6.40781 28.8948 0 22.4238 0 14.4398C0 6.47108 6.40706 0 14.3313 0C22.2413 0 28.6611 6.47108 28.6611 14.4398C28.6611 17.2269 27.8822 19.8238 26.535 22.0238L34.8148 30.3653C35.2531 30.7948 34.8855 31.866 34.0059 32.7501L32.7729 33.9955C31.8932 34.8796 30.8301 35.25 30.4046 34.822ZM23.8991 14.4398C23.8991 9.11193 19.6174 4.79838 14.3306 4.79838C9.04297 4.79838 4.74853 9.11193 4.74853 14.4398C4.74853 19.7678 9.04297 24.0949 14.3306 24.0949C19.6174 24.0949 23.8991 19.7685 23.8991 14.4398Z" fill="black"/>
</svg>
